<svg id="coach-icon-white" width="512" height="512" viewBox="0 0 512 512" xmlns="http://www.w3.org/2000/svg">
    <defs>
      <radialGradient id="wbg" cx="42%" cy="48%" r="60%">
        <stop offset="0%" stop-color="#2a2a2a"/>
        <stop offset="100%" stop-color="#141414"/>
      </radialGradient>
    </defs>

    <circle cx="256" cy="256" r="256" fill="url(#wbg)"/>

    <g stroke="#ffffff" stroke-width="1" opacity="0.025">
      <line x1="0" y1="128" x2="512" y2="128"/>
      <line x1="0" y1="256" x2="512" y2="256"/>
      <line x1="0" y1="384" x2="512" y2="384"/>
      <line x1="128" y1="0" x2="128" y2="512"/>
      <line x1="256" y1="0" x2="256" y2="512"/>
      <line x1="384" y1="0" x2="384" y2="512"/>
    </g>

    <polyline points="36,444 78,416 114,425 152,393 190,366 228,340 266,312 304,280 342,246 380,210 418,174 458,140 496,112" fill="none" stroke="#ffffff" stroke-width="2.5" stroke-linecap="round" stroke-linejoin="round" opacity="0.07"/>

    <text x="256" y="348" text-anchor="middle" font-family="Georgia,'Times New Roman',serif" font-size="235" font-weight="bold" fill="#ffffff" opacity="0.95">&#x3a3;</text>

    <polygon points="256,100 330,134 256,168 182,134" fill="#ffffff"/>
    <rect x="182" y="122" width="148" height="12" rx="2" fill="#ffffff"/>
    <polyline points="330,134 350,134 350,182" fill="none" stroke="#ffffff" stroke-width="10" stroke-linecap="round"/>
    <circle cx="350" cy="190" r="20" fill="#ffffff"/>
</svg>
